M48
;GenerationSoftware,Autodesk,EAGLE,9.6.2*%
;CreationDate,2020-09-21T13:05:09Z*%
FMAT,2
ICI,OFF
METRIC,TZ,000.000
T7C0.550
T6C0.813
T5C0.900
T4C1.000
T3C1.016
T2C1.321
T1C2.997
%
G90
M71
T1
X18557Y6026
X13857Y3026
X13857Y9026
T2
X14604Y55075
X3490Y27769
X15428Y27769
X15428Y39961
X3490Y39961
X9459Y41993
X4597Y55075
X9600Y55075
T3
X55757Y14326
X39621Y55319
X54644Y8135
X34541Y55319
X32001Y55319
X11490Y15493
X3870Y15493
X54644Y3055
X54644Y5595
X37081Y55319
X55757Y16866
X55757Y19406
X55757Y21946
X55757Y24486
X55757Y27026
X55757Y29566
X55757Y32106
T4
X23061Y42160
X51001Y44700
X51001Y47240
X23061Y24380
X23061Y19300
X23061Y16760
X23061Y21840
X23061Y14220
X51001Y49780
X23061Y49780
X23061Y47240
X23061Y44700
X51001Y14220
X23061Y39620
X51001Y24380
X51001Y26920
X51001Y29460
X51001Y32000
X51001Y34540
X51001Y37080
X51001Y39620
X51001Y42160
X23061Y26920
X23061Y29460
X23061Y34540
X51001Y16760
X23061Y32000
X23061Y37080
X51001Y19300
X51001Y21840
T5
X41979Y31327
X36198Y26375
X44146Y54862
X49918Y54850
T6
X54480Y60197
X54480Y55117
X55065Y47904
X55065Y52984
X4549Y46580
X54480Y57657
X16899Y18943
X19144Y36125
X19144Y31045
X16899Y16403
X14709Y46580
T7
X49717Y57467
X23952Y55373
X49599Y2590
X4216Y3850
X75091Y-49411
M30