G04 EAGLE Gerber RS-274X export*
G75*
%MOMM*%
%FSLAX34Y34*%
%LPD*%
%INTop Copper*%
%IPPOS*%
%AMOC8*
5,1,8,0,0,1.08239X$1,22.5*%
G01*
%ADD10C,1.524000*%
%ADD11P,2.336880X8X202.500000*%
%ADD12C,1.676400*%
%ADD13P,1.704548X8X112.500000*%
%ADD14C,1.574800*%
%ADD15C,1.981200*%
%ADD16C,1.320800*%
%ADD17P,1.429621X8X112.500000*%
%ADD18C,4.318000*%
%ADD19P,1.429621X8X292.500000*%
%ADD20R,1.350000X1.350000*%
%ADD21C,0.812800*%


D10*
X565193Y143261D02*
X549953Y143261D01*
X549953Y168661D02*
X565193Y168661D01*
X565193Y194061D02*
X549953Y194061D01*
X549953Y219461D02*
X565193Y219461D01*
X565193Y244861D02*
X549953Y244861D01*
X549953Y270261D02*
X565193Y270261D01*
X565193Y295661D02*
X549953Y295661D01*
X549953Y321061D02*
X565193Y321061D01*
X396207Y545568D02*
X396207Y560808D01*
X370807Y560808D02*
X370807Y545568D01*
X345407Y545568D02*
X345407Y560808D01*
X320007Y560808D02*
X320007Y545568D01*
D11*
X114900Y154930D03*
X38700Y154930D03*
D12*
X222230Y497801D02*
X238994Y497801D01*
X238994Y472401D02*
X222230Y472401D01*
X222230Y447001D02*
X238994Y447001D01*
X238994Y421601D02*
X222230Y421601D01*
X222230Y396201D02*
X238994Y396201D01*
X238994Y370801D02*
X222230Y370801D01*
X222230Y345401D02*
X238994Y345401D01*
X238994Y320001D02*
X222230Y320001D01*
X222230Y294601D02*
X238994Y294601D01*
X238994Y269201D02*
X222230Y269201D01*
X222230Y243801D02*
X238994Y243801D01*
X238994Y218401D02*
X222230Y218401D01*
X222230Y193001D02*
X238994Y193001D01*
X238994Y167601D02*
X222230Y167601D01*
X222230Y142201D02*
X238994Y142201D01*
X501630Y142201D02*
X518394Y142201D01*
X518394Y167601D02*
X501630Y167601D01*
X501630Y193001D02*
X518394Y193001D01*
X518394Y218401D02*
X501630Y218401D01*
X501630Y243801D02*
X518394Y243801D01*
X518394Y269201D02*
X501630Y269201D01*
X501630Y294601D02*
X518394Y294601D01*
X518394Y320001D02*
X501630Y320001D01*
X501630Y345401D02*
X518394Y345401D01*
X518394Y370801D02*
X501630Y370801D01*
X501630Y396201D02*
X518394Y396201D01*
X518394Y421601D02*
X501630Y421601D01*
X501630Y447001D02*
X518394Y447001D01*
X518394Y472401D02*
X501630Y472401D01*
X501630Y497801D02*
X518394Y497801D01*
D13*
X168992Y189431D03*
D14*
X168992Y164031D03*
D15*
X94590Y410021D02*
X94590Y429833D01*
X34900Y409513D02*
X34900Y389701D01*
X154280Y389701D02*
X154280Y409513D01*
X154280Y287593D02*
X154280Y267781D01*
X34900Y267781D02*
X34900Y287593D01*
X146042Y540845D02*
X146042Y560657D01*
X96004Y560657D02*
X96004Y540845D01*
X45966Y540845D02*
X45966Y560657D01*
D16*
X538201Y601970D02*
X551409Y601970D01*
X551409Y551170D02*
X538201Y551170D01*
X538201Y576570D02*
X551409Y576570D01*
D17*
X550652Y479039D03*
X550652Y529839D03*
D16*
X153698Y465796D02*
X140490Y465796D01*
X52098Y465796D02*
X38890Y465796D01*
D18*
X138574Y90258D03*
X138574Y30258D03*
X185574Y60258D03*
D19*
X191442Y361247D03*
X191442Y310447D03*
D10*
X538821Y30547D02*
X554061Y30547D01*
X554061Y55947D02*
X538821Y55947D01*
X538821Y81347D02*
X554061Y81347D01*
D20*
X441456Y548617D03*
D21*
X459178Y548501D02*
X499176Y548501D01*
X459062Y548617D02*
X441456Y548617D01*
X459062Y548617D02*
X459178Y548501D01*
D20*
X499176Y548501D03*
X419786Y313266D03*
D21*
X370268Y263748D01*
X361975Y263748D01*
D20*
X361975Y263748D03*
M02*
