G04 EAGLE Gerber RS-274X export*
G75*
%MOMM*%
%FSLAX34Y34*%
%LPD*%
%IN*%
%IPPOS*%
%AMOC8*
5,1,8,0,0,1.08239X$1,22.5*%
G01*
%ADD10C,0.254000*%


D10*
X0Y0D02*
X580900Y0D01*
X580900Y622200D01*
X0Y622200D01*
X0Y0D01*
X753655Y-494328D02*
X753588Y-494756D01*
X753454Y-495168D01*
X753257Y-495553D01*
X753003Y-495904D01*
X752697Y-496210D01*
X752347Y-496464D01*
X751961Y-496661D01*
X751549Y-496794D01*
X751122Y-496862D01*
X750689Y-496862D01*
X750261Y-496794D01*
X749850Y-496661D01*
X749464Y-496464D01*
X749114Y-496210D01*
X748808Y-495904D01*
X748553Y-495553D01*
X748357Y-495168D01*
X748223Y-494756D01*
X748155Y-494328D01*
X748155Y-493896D01*
X748223Y-493468D01*
X748357Y-493056D01*
X748553Y-492671D01*
X748808Y-492321D01*
X749114Y-492014D01*
X749464Y-491760D01*
X749850Y-491563D01*
X750261Y-491430D01*
X750689Y-491362D01*
X751122Y-491362D01*
X751549Y-491430D01*
X751961Y-491563D01*
X752347Y-491760D01*
X752697Y-492014D01*
X753003Y-492321D01*
X753257Y-492671D01*
X753454Y-493056D01*
X753588Y-493468D01*
X753655Y-493896D01*
X753655Y-494328D01*
X44909Y38280D02*
X44842Y37852D01*
X44708Y37441D01*
X44511Y37055D01*
X44257Y36705D01*
X43951Y36399D01*
X43601Y36144D01*
X43215Y35948D01*
X42803Y35814D01*
X42376Y35746D01*
X41943Y35746D01*
X41515Y35814D01*
X41104Y35948D01*
X40718Y36144D01*
X40368Y36399D01*
X40062Y36705D01*
X39807Y37055D01*
X39611Y37441D01*
X39477Y37852D01*
X39409Y38280D01*
X39409Y38713D01*
X39477Y39140D01*
X39611Y39552D01*
X39807Y39938D01*
X40062Y40288D01*
X40368Y40594D01*
X40718Y40848D01*
X41104Y41045D01*
X41515Y41179D01*
X41943Y41246D01*
X42376Y41246D01*
X42803Y41179D01*
X43215Y41045D01*
X43601Y40848D01*
X43951Y40594D01*
X44257Y40288D01*
X44511Y39938D01*
X44708Y39552D01*
X44842Y39140D01*
X44909Y38713D01*
X44909Y38280D01*
X498744Y25681D02*
X498676Y25253D01*
X498542Y24841D01*
X498346Y24456D01*
X498091Y24105D01*
X497785Y23799D01*
X497435Y23545D01*
X497049Y23348D01*
X496637Y23215D01*
X496210Y23147D01*
X495777Y23147D01*
X495350Y23215D01*
X494938Y23348D01*
X494552Y23545D01*
X494202Y23799D01*
X493896Y24105D01*
X493642Y24456D01*
X493445Y24841D01*
X493311Y25253D01*
X493244Y25681D01*
X493244Y26113D01*
X493311Y26541D01*
X493445Y26953D01*
X493642Y27338D01*
X493896Y27688D01*
X494202Y27995D01*
X494552Y28249D01*
X494938Y28446D01*
X495350Y28579D01*
X495777Y28647D01*
X496210Y28647D01*
X496637Y28579D01*
X497049Y28446D01*
X497435Y28249D01*
X497785Y27995D01*
X498091Y27688D01*
X498346Y27338D01*
X498542Y26953D01*
X498676Y26541D01*
X498744Y26113D01*
X498744Y25681D01*
X499918Y574456D02*
X499850Y574029D01*
X499716Y573617D01*
X499520Y573231D01*
X499265Y572881D01*
X498959Y572575D01*
X498609Y572321D01*
X498223Y572124D01*
X497812Y571990D01*
X497384Y571923D01*
X496951Y571923D01*
X496524Y571990D01*
X496112Y572124D01*
X495726Y572321D01*
X495376Y572575D01*
X495070Y572881D01*
X494816Y573231D01*
X494619Y573617D01*
X494485Y574029D01*
X494418Y574456D01*
X494418Y574889D01*
X494485Y575317D01*
X494619Y575728D01*
X494816Y576114D01*
X495070Y576464D01*
X495376Y576770D01*
X495726Y577025D01*
X496112Y577221D01*
X496524Y577355D01*
X496951Y577423D01*
X497384Y577423D01*
X497812Y577355D01*
X498223Y577221D01*
X498609Y577025D01*
X498959Y576770D01*
X499265Y576464D01*
X499520Y576114D01*
X499716Y575728D01*
X499850Y575317D01*
X499918Y574889D01*
X499918Y574456D01*
X242271Y553512D02*
X242203Y553085D01*
X242070Y552673D01*
X241873Y552287D01*
X241619Y551937D01*
X241313Y551631D01*
X240962Y551377D01*
X240577Y551180D01*
X240165Y551047D01*
X239738Y550979D01*
X239305Y550979D01*
X238877Y551047D01*
X238466Y551180D01*
X238080Y551377D01*
X237730Y551631D01*
X237424Y551937D01*
X237169Y552287D01*
X236973Y552673D01*
X236839Y553085D01*
X236771Y553512D01*
X236771Y553945D01*
X236839Y554373D01*
X236973Y554784D01*
X237169Y555170D01*
X237424Y555520D01*
X237730Y555826D01*
X238080Y556081D01*
X238466Y556277D01*
X238877Y556411D01*
X239305Y556479D01*
X239738Y556479D01*
X240165Y556411D01*
X240577Y556277D01*
X240962Y556081D01*
X241313Y555826D01*
X241619Y555520D01*
X241873Y555170D01*
X242070Y554784D01*
X242203Y554373D01*
X242271Y553945D01*
X242271Y553512D01*
M02*
